<svg xmlns="http://www.w3.org/2000/svg" viewBox="0 0 309.91 231.89"><title>Burger_color</title><g id="Layer_2" data-name="Layer 2"><g id="Layer_1-2" data-name="Layer 1"><rect x="22.52" y="119.54" width="263" height="15.79" style="fill:#ec2227"/><path d="M18.52,97.33l271-6.45s15,20.87,0,28.66-267,0-267,0S6.52,117.33,18.52,97.33Z" style="fill:#5b3a06"/><path d="M292,175.61,21.15,187.33s-15.32-27.83-.44-38.45,267-3,267-3S303.73,148.63,292,175.61Z" style="fill:#5b3a06"/><path d="M297.52,188.11c0-24.18-64.92-19-145-19s-145-5.19-145,19,64.92,43.77,145,43.77S297.52,212.29,297.52,188.11Z" style="fill:#e4d460"/><path d="M34,71.33s-36.8,16-26.68,33,39.56-3,39.56-3,9.2-3,20.24,3,19.32,22,43.24,12,26.68-15,46-9,39.56,16,63.48,5,24.84-16,44.16-11,39.56,5.11,40.48-10.45c0,0-8.28-19.55-32.2-29.55" style="fill:#16f92c"/><path d="M297.52,62.92c0,34.75-64.92,27.29-145,27.29s-145,7.46-145-27.29S72.43,0,152.52,0,297.52,28.17,297.52,62.92Z" style="fill:#e4d460"/><path d="M36.52,132.33s-33,10-36,15,8.09,6,8.09,6c45.91-13.11,156.91-13,298.91-5,12-8.11-25-16-25-16" style="fill:#f4a856"/><ellipse cx="67.52" cy="33.83" rx="9.5" ry="3.5" transform="translate(-8 34.79) rotate(-27.34)" style="fill:#fff"/><ellipse cx="67.52" cy="33.83" rx="9.5" ry="3.5" transform="translate(-8 34.79) rotate(-27.34)" style="fill:#fff"/><ellipse cx="104.52" cy="27.83" rx="9.5" ry="3.5" transform="translate(-1.11 51.11) rotate(-27.34)" style="fill:#fff"/><ellipse cx="78.94" cy="68.4" rx="9.5" ry="3.5" style="fill:#fff"/><ellipse cx="144.69" cy="37.79" rx="8.29" ry="2.29" transform="translate(77.24 171.26) rotate(-77.83)" style="fill:#fff"/><ellipse cx="148.78" cy="68.4" rx="8.29" ry="2.29" transform="translate(-11.5 34.86) rotate(-12.87)" style="fill:#fff"/><ellipse cx="174.36" cy="33.83" rx="2.29" ry="8.29" transform="translate(3.94 83.85) rotate(-27.34)" style="fill:#fff"/><ellipse cx="216.36" cy="53.86" rx="2.29" ry="8.29" transform="translate(99.52 243.76) rotate(-72.38)" style="fill:#fff"/><ellipse cx="241.36" cy="36.82" rx="2.29" ry="8.29" transform="translate(10.05 114.96) rotate(-27.34)" style="fill:#fff"/><ellipse cx="256.61" cy="61.33" rx="8.29" ry="2.29" transform="translate(-7.07 70.56) rotate(-15.45)" style="fill:#fff"/><ellipse cx="45.37" cy="60.48" rx="2.29" ry="8.29" transform="translate(-30.21 62.62) rotate(-54.75)" style="fill:#fff"/><ellipse cx="104.52" cy="61.33" rx="8.29" ry="2.29" transform="translate(-12.56 30.05) rotate(-15.45)" style="fill:#fff"/><ellipse cx="207.86" cy="27.83" rx="8.29" ry="2.29" transform="translate(0.09 56.36) rotate(-15.45)" style="fill:#fff"/><ellipse cx="189.35" cy="67.82" rx="8.29" ry="2.29" transform="translate(24.68 183.31) rotate(-54.75)" style="fill:#fff"/></g></g></svg>