<svg xmlns="http://www.w3.org/2000/svg" viewBox="0 0 310.91 232.89"><title>Burger_outline</title><g id="Layer_2" data-name="Layer 2"><g id="Layer_2-2" data-name="Layer 2"><path d="M298,63.42c0,34.75-64.92,27.29-145,27.29S8,98.17,8,63.42,72.93.5,153,.5,298,28.67,298,63.42Zm-4,12.66c-15.27,20.06-72.6,14.63-141,14.63-61.37,0-113.84,4.38-135-9.22C9.82,87.67,2.67,96.12,7.86,104.83c10.12,17,39.56-3,39.56-3s9.2-3,20.24,3,19.32,22,43.24,12,26.68-15,46-9,39.56,16,63.48,5,24.84-16,44.16-11S304.1,106.94,305,91.39A55,55,0,0,0,294,76.09Zm-29.48,25.75c-19.32-5-20.24,0-44.16,11s-44.16,1-63.48-5-22.08-1-46,9-32.2-6-43.24-12-20.24-3-20.24-3-20.17,13.69-32.86,8.76C14.6,118.87,23,120,23,120s252,7.79,267,0c7.31-3.79,7.49-10.69,5.76-16.77C287.89,106.05,276.05,104.81,264.54,101.83ZM37,132.83s-33,10-36,15,8.09,6,8.09,6c45.91-13.11,156.91-13,298.91-5,12-8.11-25-16-25-16m-246,0H283s1.16.25,3,.7V121.1c-35.68,6-263-1.06-263-1.06v15.79h4.67C33,134,37,132.83,37,132.83Zm261,55.78c0-24.18-64.92-19-145-19s-145-5.19-145,19,64.92,43.77,145,43.77S298,212.79,298,188.61Zm-145-19c61.88,0,114.7-3.09,135.52,6.65l4-.17c7.92-18.27,3.12-25.44-.8-28.16-26.36-1.39-51.57-2.5-75.39-3.28-35.28-.65-77.92-1.17-114.4-.84-35,1-63.22,3.44-83.05,7.61-6,6.54-4.48,17-1.94,25.1C37.39,166.48,90.59,169.63,153,169.63Z" style="fill:none;stroke:#000;stroke-miterlimit:10"/></g></g></svg>